<svg width="147" height="147" viewBox="0 0 147 147" fill="none" xmlns="http://www.w3.org/2000/svg">
<path d="M79.171 135.4H90.4192V146.648H79.171V135.4Z" fill="#F2BB16"/>
<path d="M90.4192 135.4H101.669V146.648H90.4192V135.4Z" fill="#F2BB16"/>
<path d="M34.1781 135.4H45.4264V146.648H34.1781V135.4Z" fill="#7A5E09"/>
<path d="M45.4264 135.4H56.6763V146.648H45.4264V135.4Z" fill="#F2BB16"/>
<path d="M101.669 135.4H112.917V146.648H101.669V135.4Z" fill="#F2BB16"/>
<path d="M112.917 124.153H124.166V135.401L112.917 135.4L112.917 124.153Z" fill="#F2BB16"/>
<path d="M124.166 112.906H135.414V124.154L124.166 124.153L124.166 112.906Z" fill="#F2BB16"/>
<path d="M135.415 101.663H146.664V112.911H135.415V101.663Z" fill="#F2BB16"/>
<path d="M34.1781 124.153H22.9298V135.401L34.1781 135.4V124.153Z" fill="#7A5E09"/>
<path d="M22.9282 112.906H11.6799V124.154L22.9298 124.153L22.9282 112.906Z" fill="#7A5E09"/>
<path d="M11.6799 101.663H0.431641V112.911H11.6799V101.663Z" fill="#7A5E09"/>
<path d="M56.6763 135.4H67.9262V146.648H56.6763V135.4Z" fill="#F2BB16"/>
<path d="M67.9176 135.4H79.1659V146.648H67.9176V135.4Z" fill="#F2BB16"/>
<path d="M79.171 11.6845H90.4192V0.436157H79.171V11.6845Z" fill="#F2BB16"/>
<path d="M90.4192 11.6845H101.669V0.436157H90.4192V11.6845Z" fill="#F2BB16"/>
<path d="M34.1781 11.6845H45.4264V0.436157H34.1781V11.6845Z" fill="#7A5E09"/>
<path d="M45.4264 11.6845H56.6763V0.436157H45.4264V11.6845Z" fill="#F2BB16"/>
<path d="M101.669 11.6845H112.917V0.436157H101.669V11.6845Z" fill="#F2BB16"/>
<path d="M112.917 22.9318H124.166V11.6835L112.917 11.6845L112.917 22.9318Z" fill="#F2BB16"/>
<path d="M124.166 34.1792H135.414V22.9309L124.166 22.9318L124.166 34.1792Z" fill="#F2BB16"/>
<path d="M135.415 45.4223H146.664V34.174H135.415V45.4223Z" fill="#F2BB16"/>
<path d="M34.1781 22.9318H22.9298V11.6835L34.1781 11.6845V22.9318Z" fill="#7A5E09"/>
<path d="M22.9282 34.1792H11.6799V22.9309L22.9298 22.9318L22.9282 34.1792Z" fill="#7A5E09"/>
<path d="M11.6799 45.4223H0.431641V34.174H11.6799V45.4223Z" fill="#7A5E09"/>
<path d="M11.6799 56.6731H0.431641V45.4248H11.6799V56.6731Z" fill="#7A5E09"/>
<path d="M11.6799 67.9239H0.431641V56.6756H11.6799V67.9239Z" fill="#7A5E09"/>
<path d="M11.6799 79.1746H0.431641V67.9263H11.6799V79.1746Z" fill="#7A5E09"/>
<path d="M11.6799 90.4076H0.431641V79.1593H11.6799V90.4076Z" fill="#7A5E09"/>
<path d="M11.6799 101.658H0.431641V90.4101H11.6799V101.658Z" fill="#7A5E09"/>
<path d="M45.428 124.154L34.1781 124.153L34.1797 135.402H45.428V124.154Z" fill="#F2BB16"/>
<path d="M34.1781 112.907L22.9282 112.906L22.9298 124.153H34.1781V112.907Z" fill="#F2BB16"/>
<path d="M22.9282 101.663H11.6799V112.911H22.9282V101.663Z" fill="#F2BB16"/>
<path d="M45.428 22.9327L34.1781 22.9318V11.6845H45.4264L45.428 22.9327Z" fill="#F2BB16"/>
<path d="M34.1781 34.18L22.9282 34.1792L22.9298 22.9318H34.1781V34.18Z" fill="#F2BB16"/>
<path d="M22.9282 45.4232L11.6799 45.4223V34.174L22.9282 34.1749V45.4232Z" fill="#F2BB16"/>
<path d="M22.9282 56.6748L11.6799 56.6731V45.4248L22.9282 45.4265V56.6748Z" fill="#F2BB16"/>
<path d="M22.9282 67.9247L11.6799 67.9239V56.6756L22.9282 56.6748V67.9247Z" fill="#F2BB16"/>
<path d="M22.9282 79.1763L11.6799 79.1746V67.9263L22.9282 67.928V79.1763Z" fill="#F2BB16"/>
<path d="M22.9282 90.4084L11.6799 90.4076V79.1593L22.9282 79.1601V90.4084Z" fill="#F2BB16"/>
<path d="M22.9282 101.66L11.6799 101.658V90.4101L22.9282 90.4118V101.66Z" fill="#F2BB16"/>
<path d="M146.664 56.6731H135.415V45.4248H146.664V56.6731Z" fill="#F2BB16"/>
<path d="M146.664 67.9239H135.415V56.6756H146.664V67.9239Z" fill="#F2BB16"/>
<path d="M146.664 79.1746H135.415V67.9263H146.664V79.1746Z" fill="#F2BB16"/>
<path d="M146.664 90.4076H135.415V79.1593H146.664V90.4076Z" fill="#F2BB16"/>
<path d="M146.664 101.658H135.415V90.4101H146.664V101.658Z" fill="#F2BB16"/>
<path d="M56.6763 11.6845H67.9262V0.436157H56.6763V11.6845Z" fill="#F2BB16"/>
<path d="M67.9176 11.6845H79.1659V0.436157H67.9176V11.6845Z" fill="#F2BB16"/>
<path d="M56.6808 45.4267H67.9291V34.1784H56.6808V45.4267Z" fill="#F2BB16"/>
<path d="M79.1721 45.4267H90.4204V34.1784H79.1721V45.4267Z" fill="#F2BB16"/>
<path d="M56.6808 56.6631H67.9291V45.4148H56.6808V56.6631Z" fill="#F2BB16"/>
<path d="M79.1721 56.6631H90.4204V45.4148H79.1721V56.6631Z" fill="#F2BB16"/>
<path d="M56.6808 67.9105H67.9291V56.6631H56.6808V67.9105Z" fill="#F2BB16"/>
<path d="M90.478 67.9105H101.726V56.6622H90.478V67.9105Z" fill="#F2BB16"/>
<path d="M101.67 90.423H112.919V79.1747H101.67V90.423Z" fill="#F2BB16"/>
<path d="M90.4204 56.6588H101.669V45.4105H90.4204V56.6588Z" fill="#F2BB16"/>
<path d="M90.4204 101.641H101.669V90.3924H90.4204V101.641Z" fill="#F2BB16"/>
<path d="M101.669 101.641H112.919V90.3924H101.669V101.641Z" fill="#F2BB16"/>
<path d="M101.67 79.1747H112.919V67.9273H101.67V79.1747Z" fill="#F2BB16"/>
<path d="M56.6808 79.1468H67.9291V67.8985H56.6808V79.1468Z" fill="#F2BB16"/>
<path d="M67.9222 79.1468H79.1705V67.8985H67.9222V79.1468Z" fill="#F2BB16"/>
<path d="M56.6808 90.3942H67.9291V79.1468H56.6808V90.3942Z" fill="#F2BB16"/>
<path d="M79.1705 79.1468H90.4204V67.8985H79.1705V79.1468Z" fill="#F2BB16"/>
<path d="M90.4204 79.1468H101.669V67.8985H90.4204V79.1468Z" fill="#F2BB16"/>
<path d="M45.4309 56.6631H56.6808V45.4148H45.4309V56.6631Z" fill="#F2BB16"/>
<path d="M67.9222 56.6631H79.1721V45.4148H67.9222V56.6631Z" fill="#F2BB16"/>
<path d="M56.6808 101.641H67.9291V90.3942H56.6808V101.641Z" fill="#F2BB16"/>
<path d="M79.1721 101.641H90.4204V90.3924H79.1721V101.641Z" fill="#F2BB16"/>
<path d="M56.6808 112.888H67.9291V101.641H56.6808V112.888Z" fill="#F2BB16"/>
<path d="M79.1721 112.888H90.4204L90.4204 101.641H79.1721V112.888Z" fill="#F2BB16"/>
<path d="M45.4309 101.641H56.6808L56.6792 90.3924H45.4309V101.641Z" fill="#F2BB16"/>
<path d="M67.9222 101.641H79.1721V90.3924H67.9222V101.641Z" fill="#F2BB16"/>
</svg>
