<svg width="124" height="124" viewBox="0 0 124 124" fill="none" xmlns="http://www.w3.org/2000/svg">
<path fill-rule="evenodd" clip-rule="evenodd" d="M112.562 10.7543L10.7543 10.7543L10.7543 112.562H112.562V10.7543ZM0 0L0 123.317H123.317V0L0 0Z" fill="white"/>
<path d="M85.1388 94.6666H94.548V104.076H85.1388V94.6666Z" fill="white"/>
<path d="M75.7327 94.6666H85.1419V104.076H75.7327V94.6666Z" fill="white"/>
<path d="M66.3223 85.2571H75.7315L75.7327 94.6666L66.3223 94.6663V85.2571Z" fill="white"/>
<path d="M85.1818 57.0323H94.591V66.4415H85.1818V57.0323Z" fill="white"/>
<path d="M85.1388 104.076H94.548V113.485H85.1388V104.076Z" fill="white"/>
<path d="M38.0953 94.6666H47.5045V104.076H38.0953V94.6666Z" fill="white"/>
<path d="M28.6866 94.6666H38.0953V104.076H28.6866V94.6666Z" fill="white"/>
<path d="M28.6866 104.076H38.0953L38.0958 113.485H28.6866V104.076Z" fill="white"/>
<path d="M47.5031 85.2571H56.9124V94.6663L47.5045 94.6666L47.5031 85.2571Z" fill="white"/>
<path d="M56.9118 75.8475H66.3211L66.3223 85.2571H56.9124L56.9118 75.8475Z" fill="white"/>
<path d="M56.9124 85.2571H66.3223V94.6663H56.9124V85.2571Z" fill="white"/>
<path d="M66.3223 94.6663L75.7327 94.6666V104.076H66.3223V94.6663Z" fill="white"/>
<path d="M47.5045 94.6666L56.9124 94.6663V104.076H47.5045V94.6666Z" fill="white"/>
<path d="M56.9124 94.6663H66.3223V104.076H56.9124V94.6663Z" fill="white"/>
<path d="M75.7327 104.076H85.1419V113.485H75.7327V104.076Z" fill="white"/>
<path d="M38.0953 104.076H47.5045V113.485H38.0958L38.0953 104.076Z" fill="white"/>
<path d="M66.3223 104.076H75.7327V113.485H66.3223V104.076Z" fill="white"/>
<path d="M47.5045 104.076H56.9124V113.485H47.5045V104.076Z" fill="white"/>
<path d="M56.9124 104.076H66.3223V113.485H56.9124V104.076Z" fill="white"/>
<path d="M56.9549 66.4414H66.3641V75.8506H56.9549V66.4414Z" fill="white"/>
<path d="M47.5453 66.4414H56.9549V75.8506H47.5453V66.4414Z" fill="white"/>
<path d="M66.3618 66.4414H75.7711V75.8506H66.3618V66.4414Z" fill="white"/>
<path d="M56.9549 57.0323H66.3641V66.4414H56.9549V57.0323Z" fill="white"/>
<path d="M47.5453 57.0323H56.9549V66.4414H47.5453V57.0323Z" fill="white"/>
<path d="M66.3618 57.0323H75.7711V66.4414H66.3618V57.0323Z" fill="white"/>
<path d="M56.9549 47.621H66.3641V57.0302H56.9549V47.621Z" fill="white"/>
<path d="M47.5453 47.621H56.9549V57.0302H47.5453V47.621Z" fill="white"/>
<path d="M66.3618 47.621H75.7711V57.0302H66.3618V47.621Z" fill="white"/>
<path d="M56.9549 38.2136H66.3641V47.621H56.9549V38.2136Z" fill="white"/>
<path d="M47.5453 38.2136H56.9549V47.621H47.5453V38.2136Z" fill="white"/>
<path d="M66.3618 38.2136H75.7711V47.621H66.3618V38.2136Z" fill="white"/>
<path d="M75.774 66.4414L85.1818 66.4415L85.1832 75.8506H75.774V66.4414Z" fill="white"/>
<path d="M75.774 57.0323H85.1818V66.4415L75.774 66.4414V57.0323Z" fill="white"/>
<path d="M75.774 47.621H85.1832V57.0302H75.774V47.621Z" fill="white"/>
<path d="M75.774 38.2136H85.1832V47.621H75.774V38.2136Z" fill="white"/>
<path d="M38.1349 66.4414H47.5453V75.8506H38.1349V66.4414Z" fill="white"/>
<path d="M38.1349 57.0323H47.5453V66.4414H38.1349V57.0323Z" fill="white"/>
<path d="M38.1349 47.621H47.5453V57.0302H38.1349V47.621Z" fill="white"/>
<path d="M38.1349 38.2136H47.5453L47.5441 47.6228L38.1349 47.621V38.2136Z" fill="white"/>
<path d="M56.9549 28.8049L66.3641 28.8049V38.2136H56.9549V28.8049Z" fill="white"/>
<path d="M47.5453 28.8049H56.9549V38.2136H47.5453V28.8049Z" fill="white"/>
<path d="M66.3618 28.8049H75.7711V38.2136H66.3618V28.8049Z" fill="white"/>
<path d="M75.774 28.8049H85.1832V38.2136H75.774V28.8049Z" fill="white"/>
<path d="M38.1349 28.8049H47.5453V38.2136H38.1349V28.8049Z" fill="white"/>
</svg>
