<svg width="187" height="103" viewBox="0 0 187 103" fill="none" xmlns="http://www.w3.org/2000/svg">
<mask id="mask0_2121_1167" style="mask-type:alpha" maskUnits="userSpaceOnUse" x="0" y="-1" width="187" height="104">
<path d="M0.662598 -0.175781H162C175.807 -0.175781 187 11.0171 187 24.8242V77.3389C187 91.146 175.807 102.339 162 102.339H0.662598V-0.175781Z" fill="url(#paint0_linear_2121_1167)"/>
</mask>
<g mask="url(#mask0_2121_1167)">
<path fill-rule="evenodd" clip-rule="evenodd" d="M127.555 1.56464C119.553 14.4268 103.417 19.6559 89.3647 13.9414L83.4805 11.5486V55.9487C83.4805 82.5203 101.681 105.652 127.555 111.964C155.573 105.678 175.48 80.8577 175.48 52.2101V11.5486L166.125 14.923C151.719 20.1191 135.634 14.5479 127.555 1.56464ZM151.233 46.4963C152.511 45.2217 152.511 43.155 151.233 41.8804C149.955 40.6057 147.883 40.6057 146.606 41.8804L123.899 64.5322L112.547 53.2083C111.269 51.9336 109.198 51.9336 107.92 53.2083C106.642 54.4829 106.642 56.5496 107.92 57.8242L121.585 71.4562C122.863 72.7308 124.934 72.7308 126.212 71.4562L151.233 46.4963Z" fill="#848484"/>
<path fill-rule="evenodd" clip-rule="evenodd" d="M74.8004 8.13135C65.9688 22.3253 48.1628 28.0959 32.6551 21.7897L26.1616 19.1491V68.1466C26.1616 97.4696 46.2472 122.996 74.8004 129.962C105.719 123.025 127.687 95.6348 127.687 64.0209V19.1491L117.363 22.8729C101.466 28.607 83.7151 22.459 74.8004 8.13135ZM100.93 57.7155C102.34 56.3089 102.34 54.0282 100.93 52.6216C99.5195 51.2149 97.2333 51.2149 95.8232 52.6216L70.7649 77.6189L58.2379 65.1225C56.8278 63.7158 54.5416 63.7158 53.1315 65.1225C51.7215 66.5291 51.7215 68.8097 53.1315 70.2164L68.2117 85.2598C69.6218 86.6665 71.908 86.6665 73.318 85.2598L100.93 57.7155Z" fill="#D9D9D9"/>
<path d="M100.93 52.6216C102.34 54.0282 102.34 56.3089 100.93 57.7155L73.318 85.2598C71.908 86.6665 69.6218 86.6665 68.2117 85.2598L53.1315 70.2164C51.7215 68.8097 51.7215 66.5291 53.1315 65.1225C54.5416 63.7158 56.8278 63.7158 58.2379 65.1225L70.7649 77.6189L95.8232 52.6216C97.2333 51.2149 99.5195 51.2149 100.93 52.6216Z" fill="#2B2B2B"/>
</g>
<defs>
<linearGradient id="paint0_linear_2121_1167" x1="103.811" y1="79.4607" x2="103.811" y2="114.307" gradientUnits="userSpaceOnUse">
<stop stop-color="#D9D9D9"/>
<stop offset="1" stop-color="#737373" stop-opacity="0"/>
</linearGradient>
</defs>
</svg>
